<svg id="visual" viewBox="0 0 900 300" width="900" height="300" xmlns="http://www.w3.org/2000/svg" xmlns:xlink="http://www.w3.org/1999/xlink" version="1.1"><rect x="0" y="0" width="900" height="300" fill="#05071e"></rect><path d="M0 122L16.7 126C33.3 130 66.7 138 100 142.3C133.3 146.7 166.7 147.3 200 145.2C233.3 143 266.7 138 300 135.8C333.3 133.7 366.7 134.3 400 133.5C433.3 132.7 466.7 130.3 500 128.2C533.3 126 566.7 124 600 125.2C633.3 126.3 666.7 130.7 700 132.5C733.3 134.3 766.7 133.7 800 132.2C833.3 130.7 866.7 128.3 883.3 127.2L900 126L900 0L883.3 0C866.7 0 833.3 0 800 0C766.7 0 733.3 0 700 0C666.7 0 633.3 0 600 0C566.7 0 533.3 0 500 0C466.7 0 433.3 0 400 0C366.7 0 333.3 0 300 0C266.7 0 233.3 0 200 0C166.7 0 133.3 0 100 0C66.7 0 33.3 0 16.7 0L0 0Z" fill="#182081"></path><path d="M0 89L16.7 93.8C33.3 98.7 66.7 108.3 100 113C133.3 117.7 166.7 117.3 200 115C233.3 112.7 266.7 108.3 300 107.2C333.3 106 366.7 108 400 107.8C433.3 107.7 466.7 105.3 500 102C533.3 98.7 566.7 94.3 600 96.5C633.3 98.7 666.7 107.3 700 108.3C733.3 109.3 766.7 102.7 800 99.8C833.3 97 866.7 98 883.3 98.5L900 99L900 0L883.3 0C866.7 0 833.3 0 800 0C766.7 0 733.3 0 700 0C666.7 0 633.3 0 600 0C566.7 0 533.3 0 500 0C466.7 0 433.3 0 400 0C366.7 0 333.3 0 300 0C266.7 0 233.3 0 200 0C166.7 0 133.3 0 100 0C66.7 0 33.3 0 16.7 0L0 0Z" fill="#151d76"></path><path d="M0 94L16.7 90C33.3 86 66.7 78 100 74.7C133.3 71.3 166.7 72.7 200 72.7C233.3 72.7 266.7 71.3 300 73C333.3 74.7 366.7 79.3 400 84.7C433.3 90 466.7 96 500 94.7C533.3 93.3 566.7 84.7 600 81.3C633.3 78 666.7 80 700 79.5C733.3 79 766.7 76 800 78.5C833.3 81 866.7 89 883.3 93L900 97L900 0L883.3 0C866.7 0 833.3 0 800 0C766.7 0 733.3 0 700 0C666.7 0 633.3 0 600 0C566.7 0 533.3 0 500 0C466.7 0 433.3 0 400 0C366.7 0 333.3 0 300 0C266.7 0 233.3 0 200 0C166.7 0 133.3 0 100 0C66.7 0 33.3 0 16.7 0L0 0Z" fill="#121a6c"></path><path d="M0 72L16.7 70.5C33.3 69 66.7 66 100 63.5C133.3 61 166.7 59 200 60.2C233.3 61.3 266.7 65.7 300 67.8C333.3 70 366.7 70 400 68.7C433.3 67.3 466.7 64.7 500 65.3C533.3 66 566.7 70 600 68.8C633.3 67.7 666.7 61.3 700 61.2C733.3 61 766.7 67 800 70C833.3 73 866.7 73 883.3 73L900 73L900 0L883.3 0C866.7 0 833.3 0 800 0C766.7 0 733.3 0 700 0C666.7 0 633.3 0 600 0C566.7 0 533.3 0 500 0C466.7 0 433.3 0 400 0C366.7 0 333.3 0 300 0C266.7 0 233.3 0 200 0C166.7 0 133.3 0 100 0C66.7 0 33.3 0 16.7 0L0 0Z" fill="#101862"></path><path d="M0 42L16.7 44.5C33.3 47 66.7 52 100 53.2C133.3 54.3 166.7 51.7 200 48.7C233.3 45.7 266.7 42.3 300 43.5C333.3 44.7 366.7 50.3 400 50.2C433.3 50 466.7 44 500 40.8C533.3 37.7 566.7 37.3 600 37C633.3 36.7 666.7 36.3 700 39C733.3 41.7 766.7 47.3 800 50.2C833.3 53 866.7 53 883.3 53L900 53L900 0L883.3 0C866.7 0 833.3 0 800 0C766.7 0 733.3 0 700 0C666.7 0 633.3 0 600 0C566.7 0 533.3 0 500 0C466.7 0 433.3 0 400 0C366.7 0 333.3 0 300 0C266.7 0 233.3 0 200 0C166.7 0 133.3 0 100 0C66.7 0 33.3 0 16.7 0L0 0Z" fill="#0e1558"></path><path d="M0 18L16.7 19.2C33.3 20.3 66.7 22.7 100 22.8C133.3 23 166.7 21 200 19.7C233.3 18.3 266.7 17.7 300 18.5C333.3 19.3 366.7 21.7 400 23.3C433.3 25 466.7 26 500 26C533.3 26 566.7 25 600 25.7C633.3 26.3 666.7 28.7 700 30.5C733.3 32.3 766.7 33.7 800 31.2C833.3 28.7 866.7 22.3 883.3 19.2L900 16L900 0L883.3 0C866.7 0 833.3 0 800 0C766.7 0 733.3 0 700 0C666.7 0 633.3 0 600 0C566.7 0 533.3 0 500 0C466.7 0 433.3 0 400 0C366.7 0 333.3 0 300 0C266.7 0 233.3 0 200 0C166.7 0 133.3 0 100 0C66.7 0 33.3 0 16.7 0L0 0Z" fill="#0c124e"></path></svg>