<svg id="visual" viewBox="0 0 900 300" width="900" height="300" xmlns="http://www.w3.org/2000/svg" xmlns:xlink="http://www.w3.org/1999/xlink" version="1.1"><rect x="0" y="0" width="900" height="300" fill="#05071e"></rect><path d="M0 81L21.5 83.3C43 85.7 86 90.3 128.8 92.8C171.7 95.3 214.3 95.7 257.2 92.8C300 90 343 84 385.8 82.2C428.7 80.3 471.3 82.7 514.2 84.5C557 86.3 600 87.7 642.8 85C685.7 82.3 728.3 75.7 771.2 73.5C814 71.3 857 73.7 878.5 74.8L900 76L900 0L878.5 0C857 0 814 0 771.2 0C728.3 0 685.7 0 642.8 0C600 0 557 0 514.2 0C471.3 0 428.7 0 385.8 0C343 0 300 0 257.2 0C214.3 0 171.7 0 128.8 0C86 0 43 0 21.5 0L0 0Z" fill="#182081"></path><path d="M0 73L21.5 72.2C43 71.3 86 69.7 128.8 67.3C171.7 65 214.3 62 257.2 62.7C300 63.3 343 67.7 385.8 70.2C428.7 72.7 471.3 73.3 514.2 73.8C557 74.3 600 74.7 642.8 72.5C685.7 70.3 728.3 65.7 771.2 63.2C814 60.7 857 60.3 878.5 60.2L900 60L900 0L878.5 0C857 0 814 0 771.2 0C728.3 0 685.7 0 642.8 0C600 0 557 0 514.2 0C471.3 0 428.7 0 385.8 0C343 0 300 0 257.2 0C214.3 0 171.7 0 128.8 0C86 0 43 0 21.5 0L0 0Z" fill="#141d74"></path><path d="M0 58L21.5 55C43 52 86 46 128.8 44.2C171.7 42.3 214.3 44.7 257.2 46.5C300 48.3 343 49.7 385.8 49.5C428.7 49.3 471.3 47.7 514.2 49.2C557 50.7 600 55.3 642.8 55.8C685.7 56.3 728.3 52.7 771.2 53C814 53.3 857 57.7 878.5 59.8L900 62L900 0L878.5 0C857 0 814 0 771.2 0C728.3 0 685.7 0 642.8 0C600 0 557 0 514.2 0C471.3 0 428.7 0 385.8 0C343 0 300 0 257.2 0C214.3 0 171.7 0 128.8 0C86 0 43 0 21.5 0L0 0Z" fill="#111967"></path><path d="M0 37L21.5 37.8C43 38.7 86 40.3 128.8 41.5C171.7 42.7 214.3 43.3 257.2 41.7C300 40 343 36 385.8 34.3C428.7 32.7 471.3 33.3 514.2 34C557 34.7 600 35.3 642.8 35.2C685.7 35 728.3 34 771.2 33.8C814 33.7 857 34.3 878.5 34.7L900 35L900 0L878.5 0C857 0 814 0 771.2 0C728.3 0 685.7 0 642.8 0C600 0 557 0 514.2 0C471.3 0 428.7 0 385.8 0C343 0 300 0 257.2 0C214.3 0 171.7 0 128.8 0C86 0 43 0 21.5 0L0 0Z" fill="#0e155a"></path><path d="M0 23L21.5 22.8C43 22.7 86 22.3 128.8 20.5C171.7 18.7 214.3 15.3 257.2 15.3C300 15.3 343 18.7 385.8 19C428.7 19.3 471.3 16.7 514.2 17.2C557 17.7 600 21.3 642.8 22.5C685.7 23.7 728.3 22.3 771.2 20.5C814 18.7 857 16.3 878.5 15.2L900 14L900 0L878.5 0C857 0 814 0 771.2 0C728.3 0 685.7 0 642.8 0C600 0 557 0 514.2 0C471.3 0 428.7 0 385.8 0C343 0 300 0 257.2 0C214.3 0 171.7 0 128.8 0C86 0 43 0 21.5 0L0 0Z" fill="#0c124e"></path></svg>