<svg id="visual" viewBox="0 0 900 300" width="900" height="300" xmlns="http://www.w3.org/2000/svg" xmlns:xlink="http://www.w3.org/1999/xlink" version="1.1"><rect x="0" y="0" width="900" height="300" fill="#05071e"></rect><path d="M0 163L16.7 168.5C33.3 174 66.7 185 100 190.7C133.3 196.3 166.7 196.7 200 193.7C233.3 190.7 266.7 184.3 300 181.5C333.3 178.7 366.7 179.3 400 178C433.3 176.7 466.7 173.3 500 170.5C533.3 167.7 566.7 165.3 600 167C633.3 168.7 666.7 174.3 700 176.8C733.3 179.3 766.7 178.7 800 176.8C833.3 175 866.7 172 883.3 170.5L900 169L900 0L883.3 0C866.7 0 833.3 0 800 0C766.7 0 733.3 0 700 0C666.7 0 633.3 0 600 0C566.7 0 533.3 0 500 0C466.7 0 433.3 0 400 0C366.7 0 333.3 0 300 0C266.7 0 233.3 0 200 0C166.7 0 133.3 0 100 0C66.7 0 33.3 0 16.7 0L0 0Z" fill="#182081"></path><path d="M0 120L16.7 126.3C33.3 132.7 66.7 145.3 100 151.3C133.3 157.3 166.7 156.7 200 153.5C233.3 150.3 266.7 144.7 300 143C333.3 141.3 366.7 143.7 400 143.5C433.3 143.3 466.7 140.7 500 136.5C533.3 132.3 566.7 126.7 600 129.5C633.3 132.3 666.7 143.7 700 145C733.3 146.3 766.7 137.7 800 134C833.3 130.3 866.7 131.7 883.3 132.3L900 133L900 0L883.3 0C866.7 0 833.3 0 800 0C766.7 0 733.3 0 700 0C666.7 0 633.3 0 600 0C566.7 0 533.3 0 500 0C466.7 0 433.3 0 400 0C366.7 0 333.3 0 300 0C266.7 0 233.3 0 200 0C166.7 0 133.3 0 100 0C66.7 0 33.3 0 16.7 0L0 0Z" fill="#151d76"></path><path d="M0 126L16.7 120.7C33.3 115.3 66.7 104.7 100 100C133.3 95.3 166.7 96.7 200 96.7C233.3 96.7 266.7 95.3 300 97.7C333.3 100 366.7 106 400 113C433.3 120 466.7 128 500 126.2C533.3 124.3 566.7 112.7 600 108.3C633.3 104 666.7 107 700 106.5C733.3 106 766.7 102 800 105.3C833.3 108.7 866.7 119.3 883.3 124.7L900 130L900 0L883.3 0C866.7 0 833.3 0 800 0C766.7 0 733.3 0 700 0C666.7 0 633.3 0 600 0C566.7 0 533.3 0 500 0C466.7 0 433.3 0 400 0C366.7 0 333.3 0 300 0C266.7 0 233.3 0 200 0C166.7 0 133.3 0 100 0C66.7 0 33.3 0 16.7 0L0 0Z" fill="#121a6c"></path><path d="M0 96L16.7 94.2C33.3 92.3 66.7 88.7 100 85.5C133.3 82.3 166.7 79.7 200 81.2C233.3 82.7 266.7 88.3 300 91C333.3 93.7 366.7 93.3 400 91.5C433.3 89.7 466.7 86.3 500 87.5C533.3 88.7 566.7 94.3 600 92.7C633.3 91 666.7 82 700 81.7C733.3 81.3 766.7 89.7 800 93.8C833.3 98 866.7 98 883.3 98L900 98L900 0L883.3 0C866.7 0 833.3 0 800 0C766.7 0 733.3 0 700 0C666.7 0 633.3 0 600 0C566.7 0 533.3 0 500 0C466.7 0 433.3 0 400 0C366.7 0 333.3 0 300 0C266.7 0 233.3 0 200 0C166.7 0 133.3 0 100 0C66.7 0 33.3 0 16.7 0L0 0Z" fill="#101862"></path><path d="M0 56L16.7 59.5C33.3 63 66.7 70 100 71.7C133.3 73.3 166.7 69.7 200 65.5C233.3 61.3 266.7 56.7 300 58.3C333.3 60 366.7 68 400 67.7C433.3 67.3 466.7 58.7 500 54.2C533.3 49.7 566.7 49.3 600 49C633.3 48.7 666.7 48.3 700 52C733.3 55.7 766.7 63.3 800 67.2C833.3 71 866.7 71 883.3 71L900 71L900 0L883.3 0C866.7 0 833.3 0 800 0C766.7 0 733.3 0 700 0C666.7 0 633.3 0 600 0C566.7 0 533.3 0 500 0C466.7 0 433.3 0 400 0C366.7 0 333.3 0 300 0C266.7 0 233.3 0 200 0C166.7 0 133.3 0 100 0C66.7 0 33.3 0 16.7 0L0 0Z" fill="#0e1558"></path><path d="M0 25L16.7 26.3C33.3 27.7 66.7 30.3 100 30.5C133.3 30.7 166.7 28.3 200 26.7C233.3 25 266.7 24 300 25C333.3 26 366.7 29 400 31.3C433.3 33.7 466.7 35.3 500 35.5C533.3 35.7 566.7 34.3 600 35.2C633.3 36 666.7 39 700 41.3C733.3 43.7 766.7 45.3 800 42C833.3 38.7 866.7 30.3 883.3 26.2L900 22L900 0L883.3 0C866.7 0 833.3 0 800 0C766.7 0 733.3 0 700 0C666.7 0 633.3 0 600 0C566.7 0 533.3 0 500 0C466.7 0 433.3 0 400 0C366.7 0 333.3 0 300 0C266.7 0 233.3 0 200 0C166.7 0 133.3 0 100 0C66.7 0 33.3 0 16.7 0L0 0Z" fill="#0c124e"></path></svg>