<svg id="visual" viewBox="0 0 900 300" width="900" height="300" xmlns="http://www.w3.org/2000/svg" xmlns:xlink="http://www.w3.org/1999/xlink" version="1.1"><rect x="0" y="0" width="900" height="300" fill="#05071e"></rect><path d="M0 153L16.7 149.8C33.3 146.7 66.7 140.3 100 140C133.3 139.7 166.7 145.3 200 149.2C233.3 153 266.7 155 300 155.5C333.3 156 366.7 155 400 157.5C433.3 160 466.7 166 500 162.8C533.3 159.7 566.7 147.3 600 144.3C633.3 141.3 666.7 147.7 700 149.8C733.3 152 766.7 150 800 148C833.3 146 866.7 144 883.3 143L900 142L900 301L883.3 301C866.7 301 833.3 301 800 301C766.7 301 733.3 301 700 301C666.7 301 633.3 301 600 301C566.7 301 533.3 301 500 301C466.7 301 433.3 301 400 301C366.7 301 333.3 301 300 301C266.7 301 233.3 301 200 301C166.7 301 133.3 301 100 301C66.7 301 33.3 301 16.7 301L0 301Z" fill="#182081"></path><path d="M0 170L16.7 172.2C33.3 174.3 66.7 178.7 100 181.3C133.3 184 166.7 185 200 186.5C233.3 188 266.7 190 300 191.2C333.3 192.3 366.7 192.7 400 190.2C433.3 187.7 466.7 182.3 500 178C533.3 173.7 566.7 170.3 600 171C633.3 171.7 666.7 176.3 700 175.8C733.3 175.3 766.7 169.7 800 167.5C833.3 165.3 866.7 166.7 883.3 167.3L900 168L900 301L883.3 301C866.7 301 833.3 301 800 301C766.7 301 733.3 301 700 301C666.7 301 633.3 301 600 301C566.7 301 533.3 301 500 301C466.7 301 433.3 301 400 301C366.7 301 333.3 301 300 301C266.7 301 233.3 301 200 301C166.7 301 133.3 301 100 301C66.7 301 33.3 301 16.7 301L0 301Z" fill="#141d74"></path><path d="M0 201L16.7 201.2C33.3 201.3 66.7 201.7 100 203.2C133.3 204.7 166.7 207.3 200 205.2C233.3 203 266.7 196 300 193.5C333.3 191 366.7 193 400 199.2C433.3 205.3 466.7 215.7 500 216.3C533.3 217 566.7 208 600 203.2C633.3 198.3 666.7 197.7 700 198C733.3 198.3 766.7 199.7 800 203C833.3 206.3 866.7 211.7 883.3 214.3L900 217L900 301L883.3 301C866.7 301 833.3 301 800 301C766.7 301 733.3 301 700 301C666.7 301 633.3 301 600 301C566.7 301 533.3 301 500 301C466.7 301 433.3 301 400 301C366.7 301 333.3 301 300 301C266.7 301 233.3 301 200 301C166.7 301 133.3 301 100 301C66.7 301 33.3 301 16.7 301L0 301Z" fill="#111967"></path><path d="M0 234L16.7 233.2C33.3 232.3 66.7 230.7 100 228.3C133.3 226 166.7 223 200 225.3C233.3 227.7 266.7 235.3 300 239C333.3 242.7 366.7 242.3 400 242.7C433.3 243 466.7 244 500 241.7C533.3 239.3 566.7 233.7 600 230.2C633.3 226.7 666.7 225.3 700 226.2C733.3 227 766.7 230 800 233.3C833.3 236.7 866.7 240.3 883.3 242.2L900 244L900 301L883.3 301C866.7 301 833.3 301 800 301C766.7 301 733.3 301 700 301C666.7 301 633.3 301 600 301C566.7 301 533.3 301 500 301C466.7 301 433.3 301 400 301C366.7 301 333.3 301 300 301C266.7 301 233.3 301 200 301C166.7 301 133.3 301 100 301C66.7 301 33.3 301 16.7 301L0 301Z" fill="#0e155a"></path><path d="M0 257L16.7 257.2C33.3 257.3 66.7 257.7 100 258.5C133.3 259.3 166.7 260.7 200 261C233.3 261.3 266.7 260.7 300 260.2C333.3 259.7 366.7 259.3 400 257.7C433.3 256 466.7 253 500 255.5C533.3 258 566.7 266 600 268.3C633.3 270.7 666.7 267.3 700 264C733.3 260.7 766.7 257.3 800 256.3C833.3 255.3 866.7 256.7 883.3 257.3L900 258L900 301L883.3 301C866.7 301 833.3 301 800 301C766.7 301 733.3 301 700 301C666.7 301 633.3 301 600 301C566.7 301 533.3 301 500 301C466.7 301 433.3 301 400 301C366.7 301 333.3 301 300 301C266.7 301 233.3 301 200 301C166.7 301 133.3 301 100 301C66.7 301 33.3 301 16.7 301L0 301Z" fill="#0c124e"></path></svg>