<!--?xml version="1.0" standalone="no"?-->
              <svg id="sw-js-blob-svg" viewBox="0 0 100 100" xmlns="http://www.w3.org/2000/svg" version="1.1">
                    <defs> 
                        <linearGradient id="sw-gradient" x1="0" x2="1" y1="1" y2="0">
                            <stop id="stop1" stop-color="rgba(13, 19, 82, 1)" offset="0%"></stop>
                            <stop id="stop2" stop-color="rgba(54.875, 70.885, 255, 1)" offset="100%"></stop>
                        </linearGradient>
                    </defs>
                <path fill="url(#sw-gradient)" d="M17.4,-28.8C23.4,-26.7,29.8,-23.8,32.9,-18.8C36,-13.9,36,-6.9,33.6,-1.4C31.2,4.2,26.4,8.3,23.1,13C19.8,17.6,18,22.8,14.4,28.7C10.7,34.6,5.4,41.4,0.9,39.7C-3.5,38.1,-7,28.2,-13.8,24.1C-20.6,20,-30.7,21.8,-34.9,18.8C-39.1,15.7,-37.4,7.9,-33.8,2.1C-30.2,-3.7,-24.7,-7.4,-22.2,-13.3C-19.6,-19.2,-20.1,-27.4,-16.9,-31.2C-13.7,-35,-6.8,-34.4,-0.6,-33.4C5.7,-32.4,11.4,-31,17.4,-28.8Z" width="100%" height="100%" transform="translate(50 50)" stroke-width="0" style="transition: all 0.3s ease 0s;" stroke="url(#sw-gradient)"></path>
              </svg>