<!--?xml version="1.0" standalone="no"?-->
              <svg id="sw-js-blob-svg" viewBox="0 0 100 100" xmlns="http://www.w3.org/2000/svg" version="1.1">
                    <defs> 
                        <linearGradient id="sw-gradient" x1="0" x2="1" y1="1" y2="0">
                            <stop id="stop1" stop-color="rgba(13, 19, 82, 1)" offset="0%"></stop>
                            <stop id="stop2" stop-color="rgba(63.514, 78.833, 255, 1)" offset="100%"></stop>
                        </linearGradient>
                    </defs>
                <path fill="url(#sw-gradient)" d="M26.3,-32.6C33.6,-30.9,38.7,-22.6,38.5,-14.5C38.3,-6.5,32.8,1.2,29.2,8.7C25.7,16.2,24.1,23.6,19.5,26.2C15,28.7,7.5,26.5,1.4,24.5C-4.7,22.6,-9.3,20.9,-13.5,18.2C-17.7,15.5,-21.5,11.9,-23.9,7.1C-26.3,2.4,-27.3,-3.4,-25.3,-7.7C-23.2,-12,-18,-14.9,-13.3,-17.4C-8.6,-20,-4.3,-22.4,2.6,-26C9.5,-29.6,19,-34.4,26.3,-32.6Z" width="100%" height="100%" transform="translate(50 50)" stroke-width="0" style="transition: all 0.3s ease 0s;" stroke="url(#sw-gradient)"></path>
              </svg>