<!--?xml version="1.0" standalone="no"?-->
              <svg id="sw-js-blob-svg" viewBox="0 0 100 100" xmlns="http://www.w3.org/2000/svg" version="1.1">
                    <defs> 
                        <linearGradient id="sw-gradient" x1="0" x2="1" y1="1" y2="0">
                            <stop id="stop1" stop-color="rgba(13, 19, 82, 1)" offset="0%"></stop>
                            <stop id="stop2" stop-color="rgba(63.514, 78.833, 255, 1)" offset="100%"></stop>
                        </linearGradient>
                    </defs>
                <path fill="url(#sw-gradient)" d="M14.2,-22.3C18,-16.8,20.3,-12.1,24.3,-6.4C28.2,-0.7,33.6,6,33.8,12.6C33.9,19.2,28.7,25.8,22.2,27.2C15.6,28.7,7.8,25.1,1.9,22.4C-4,19.7,-7.9,18,-15.4,16.9C-22.8,15.7,-33.7,15.1,-37.3,10.6C-41,6,-37.3,-2.5,-34.7,-11.5C-32.1,-20.6,-30.5,-30.2,-24.9,-35.1C-19.3,-40,-9.7,-40.1,-2.2,-37.1C5.2,-34,10.4,-27.8,14.2,-22.3Z" width="100%" height="100%" transform="translate(50 50)" stroke-width="0" style="transition: all 0.3s ease 0s;" stroke="url(#sw-gradient)"></path>
              </svg>